<?xml version="1.0" encoding="UTF-8"?>
<!--Generator: Apple Native CoreSVG 232.5-->
<!DOCTYPE svg
PUBLIC "-//W3C//DTD SVG 1.1//EN"
       "http://www.w3.org/Graphics/SVG/1.1/DTD/svg11.dtd">
<svg version="1.1" xmlns="http://www.w3.org/2000/svg" xmlns:xlink="http://www.w3.org/1999/xlink" width="3300" height="2200">
 <!--glyph: "uni10035F.medium", point size: 100.0, font version: "19.2d2e1", template writer version: "128"-->
 <style>.monochrome-0 {}

.multicolor-0:systemGrayColor {}

.hierarchical-0:primary {}

.SFSymbolsPreview8E8E93 {fill:#8E8E93;opacity:1.0}
</style>
 <g id="Notes">
  <rect height="2200" id="artboard" style="fill:white;opacity:1" width="3300" x="0" y="0"/>
  <line style="fill:none;stroke:black;opacity:1;stroke-width:0.5;" x1="263" x2="3036" y1="292" y2="292"/>
  <text style="stroke:none;fill:black;font-family:sans-serif;font-size:13;font-weight:bold;" transform="matrix(1 0 0 1 263 322)">Weight/Scale Variations</text>
  <text style="stroke:none;fill:black;font-family:sans-serif;font-size:13;text-anchor:middle;" transform="matrix(1 0 0 1 559.711 322)">Ultralight</text>
  <text style="stroke:none;fill:black;font-family:sans-serif;font-size:13;text-anchor:middle;" transform="matrix(1 0 0 1 856.422 322)">Thin</text>
  <text style="stroke:none;fill:black;font-family:sans-serif;font-size:13;text-anchor:middle;" transform="matrix(1 0 0 1 1153.13 322)">Light</text>
  <text style="stroke:none;fill:black;font-family:sans-serif;font-size:13;text-anchor:middle;" transform="matrix(1 0 0 1 1449.84 322)">Regular</text>
  <text style="stroke:none;fill:black;font-family:sans-serif;font-size:13;text-anchor:middle;" transform="matrix(1 0 0 1 1746.56 322)">Medium</text>
  <text style="stroke:none;fill:black;font-family:sans-serif;font-size:13;text-anchor:middle;" transform="matrix(1 0 0 1 2043.27 322)">Semibold</text>
  <text style="stroke:none;fill:black;font-family:sans-serif;font-size:13;text-anchor:middle;" transform="matrix(1 0 0 1 2339.98 322)">Bold</text>
  <text style="stroke:none;fill:black;font-family:sans-serif;font-size:13;text-anchor:middle;" transform="matrix(1 0 0 1 2636.69 322)">Heavy</text>
  <text style="stroke:none;fill:black;font-family:sans-serif;font-size:13;text-anchor:middle;" transform="matrix(1 0 0 1 2933.4 322)">Black</text>
  <line style="fill:none;stroke:black;opacity:1;stroke-width:0.5;" x1="263" x2="3036" y1="1903" y2="1903"/>
  <g transform="matrix(0.2 0 0 0.2 263 1933)">
   <path d="m46.2402 4.15039c21.5332 0 39.4531-17.8711 39.4531-39.4043s-17.9688-39.4043-39.502-39.4043c-21.4844 0-39.3555 17.8711-39.3555 39.4043s17.9199 39.4043 39.4043 39.4043Zm0-7.42188c-17.7246 0-31.8848-14.209-31.8848-31.9824s14.1113-31.9824 31.8359-31.9824c17.7734 0 32.0312 14.209 32.0312 31.9824s-14.209 31.9824-31.9824 31.9824Zm-17.9688-31.9824c0 2.14844 1.51367 3.61328 3.75977 3.61328h10.498v10.5957c0 2.19727 1.46484 3.71094 3.61328 3.71094 2.24609 0 3.71094-1.51367 3.71094-3.71094v-10.5957h10.5957c2.19727 0 3.71094-1.46484 3.71094-3.61328 0-2.19727-1.51367-3.71094-3.71094-3.71094h-10.5957v-10.5469c0-2.24609-1.46484-3.75977-3.71094-3.75977-2.14844 0-3.61328 1.51367-3.61328 3.75977v10.5469h-10.498c-2.24609 0-3.75977 1.51367-3.75977 3.71094Z"/>
  </g>
  <g transform="matrix(0.2 0 0 0.2 281.506 1933)">
   <path d="m58.5449 14.5508c27.2461 0 49.8047-22.6074 49.8047-49.8047 0-27.2461-22.6074-49.8047-49.8535-49.8047-27.1973 0-49.7559 22.5586-49.7559 49.8047 0 27.1973 22.6074 49.8047 49.8047 49.8047Zm0-8.30078c-23.0469 0-41.4551-18.457-41.4551-41.5039s18.3594-41.5039 41.4062-41.5039 41.5527 18.457 41.5527 41.5039-18.457 41.5039-41.5039 41.5039Zm-22.6562-41.5039c0 2.39258 1.66016 4.00391 4.15039 4.00391h14.3555v14.4043c0 2.44141 1.66016 4.15039 4.05273 4.15039 2.44141 0 4.15039-1.66016 4.15039-4.15039v-14.4043h14.4043c2.44141 0 4.15039-1.61133 4.15039-4.00391 0-2.44141-1.70898-4.15039-4.15039-4.15039h-14.4043v-14.3555c0-2.49023-1.70898-4.19922-4.15039-4.19922-2.39258 0-4.05273 1.70898-4.05273 4.19922v14.3555h-14.3555c-2.49023 0-4.15039 1.70898-4.15039 4.15039Z"/>
  </g>
  <g transform="matrix(0.2 0 0 0.2 304.924 1933)">
   <path d="m74.8535 28.3203c34.8145 0 63.623-28.8086 63.623-63.5742 0-34.8145-28.8574-63.623-63.6719-63.623-34.7656 0-63.5254 28.8086-63.5254 63.623 0 34.7656 28.8086 63.5742 63.5742 63.5742Zm0-9.08203c-30.1758 0-54.4434-24.3164-54.4434-54.4922 0-30.2246 24.2188-54.4922 54.3945-54.4922 30.2246 0 54.541 24.2676 54.541 54.4922 0 30.1758-24.2676 54.4922-54.4922 54.4922Zm-28.8574-54.4922c0 2.58789 1.85547 4.39453 4.58984 4.39453h19.7266v19.7754c0 2.68555 1.85547 4.58984 4.44336 4.58984 2.68555 0 4.54102-1.85547 4.54102-4.58984v-19.7754h19.7754c2.68555 0 4.58984-1.80664 4.58984-4.39453 0-2.73438-1.85547-4.58984-4.58984-4.58984h-19.7754v-19.7266c0-2.73438-1.85547-4.63867-4.54102-4.63867-2.58789 0-4.44336 1.9043-4.44336 4.63867v19.7266h-19.7266c-2.73438 0-4.58984 1.85547-4.58984 4.58984Z"/>
  </g>
  <text style="stroke:none;fill:black;font-family:sans-serif;font-size:13;font-weight:bold;" transform="matrix(1 0 0 1 263 1953)">Design Variations</text>
  <text style="stroke:none;fill:black;font-family:sans-serif;font-size:13;" transform="matrix(1 0 0 1 263 1971)">Symbols are supported in up to nine weights and three scales.</text>
  <text style="stroke:none;fill:black;font-family:sans-serif;font-size:13;" transform="matrix(1 0 0 1 263 1989)">For optimal layout with text and other symbols, vertically align</text>
  <text style="stroke:none;fill:black;font-family:sans-serif;font-size:13;" transform="matrix(1 0 0 1 263 2007)">symbols with the adjacent text.</text>
  <line style="fill:none;stroke:#00AEEF;stroke-width:0.5;opacity:1.0;" x1="776" x2="776" y1="1919" y2="1933"/>
  <g transform="matrix(0.2 0 0 0.2 776 1933)">
   <path d="m16.5527 0.78125c2.58789 0 3.85742-0.976562 4.78516-3.71094l6.29883-17.2363h28.8086l6.29883 17.2363c0.927734 2.73438 2.19727 3.71094 4.73633 3.71094 2.58789 0 4.24805-1.5625 4.24805-4.00391 0-0.830078-0.146484-1.61133-0.537109-2.63672l-22.9004-60.9863c-1.12305-2.97852-3.125-4.49219-6.25-4.49219-3.02734 0-5.07812 1.46484-6.15234 4.44336l-22.9004 61.084c-0.390625 1.02539-0.537109 1.80664-0.537109 2.63672 0 2.44141 1.5625 3.95508 4.10156 3.95508Zm13.4766-28.3691 11.8652-32.8613h0.244141l11.8652 32.8613Z"/>
  </g>
  <line style="fill:none;stroke:#00AEEF;stroke-width:0.5;opacity:1.0;" x1="792.836" x2="792.836" y1="1919" y2="1933"/>
  <text style="stroke:none;fill:black;font-family:sans-serif;font-size:13;font-weight:bold;" transform="matrix(1 0 0 1 776 1953)">Margins</text>
  <text style="stroke:none;fill:black;font-family:sans-serif;font-size:13;" transform="matrix(1 0 0 1 776 1971)">Leading and trailing margins on the left and right side of each symbol</text>
  <text style="stroke:none;fill:black;font-family:sans-serif;font-size:13;" transform="matrix(1 0 0 1 776 1989)">can be adjusted by modifying the x-location of the margin guidelines.</text>
  <text style="stroke:none;fill:black;font-family:sans-serif;font-size:13;" transform="matrix(1 0 0 1 776 2007)">Modifications are automatically applied proportionally to all</text>
  <text style="stroke:none;fill:black;font-family:sans-serif;font-size:13;" transform="matrix(1 0 0 1 776 2025)">scales and weights.</text>
  <g transform="matrix(0.2 0 0 0.2 1289 1933)">
   <path d="m14.209 9.32617 8.49609 8.54492c4.29688 4.3457 9.22852 4.05273 13.8672-1.07422l53.4668-58.9355-4.83398-4.88281-53.0762 58.3984c-1.75781 2.00195-3.41797 2.49023-5.76172 0.146484l-5.85938-5.81055c-2.34375-2.29492-1.80664-4.00391 0.195312-5.81055l57.373-54.0039-4.88281-4.83398-57.959 54.4434c-4.93164 4.58984-5.32227 9.47266-1.02539 13.8184Zm32.0801-90.9668c-2.09961 2.05078-2.24609 4.93164-1.07422 6.88477 1.17188 1.80664 3.4668 2.97852 6.68945 2.14844 7.32422-1.70898 14.9414-2.00195 22.0703 2.68555l-2.92969 7.27539c-1.70898 4.15039-0.830078 7.08008 1.85547 9.81445l11.4746 11.5723c2.44141 2.44141 4.49219 2.53906 7.32422 2.05078l5.32227-0.976562 3.32031 3.36914-0.195312 2.7832c-0.195312 2.49023 0.439453 4.39453 2.88086 6.78711l3.80859 3.71094c2.39258 2.39258 5.46875 2.53906 7.8125 0.195312l14.5508-14.5996c2.34375-2.34375 2.24609-5.32227-0.146484-7.71484l-3.85742-3.80859c-2.39258-2.39258-4.24805-3.17383-6.64062-2.97852l-2.88086 0.244141-3.22266-3.17383 1.2207-5.61523c0.634766-2.83203-0.146484-5.0293-3.07617-7.95898l-10.9863-10.9375c-16.6992-16.6016-38.8672-16.2109-53.3203-1.75781Zm7.4707 1.85547c12.1582-8.88672 28.6133-7.37305 39.7461 3.75977l12.1582 12.0605c1.17188 1.17188 1.36719 2.09961 1.02539 3.80859l-1.61133 7.42188 7.51953 7.42188 4.93164-0.292969c1.26953-0.0488281 1.66016 0.0488281 2.63672 1.02539l2.88086 2.88086-12.207 12.207-2.88086-2.88086c-0.976562-0.976562-1.12305-1.36719-1.07422-2.68555l0.341797-4.88281-7.4707-7.42188-7.61719 1.26953c-1.61133 0.341797-2.34375 0.195312-3.56445-0.976562l-10.0098-10.0098c-1.26953-1.17188-1.41602-2.00195-0.634766-3.85742l4.39453-10.4492c-7.8125-7.27539-17.9688-10.4004-28.125-7.42188-0.78125 0.195312-1.07422-0.439453-0.439453-0.976562Z"/>
  </g>
  <text style="stroke:none;fill:black;font-family:sans-serif;font-size:13;font-weight:bold;" transform="matrix(1 0 0 1 1289 1953)">Exporting</text>
  <text style="stroke:none;fill:black;font-family:sans-serif;font-size:13;" transform="matrix(1 0 0 1 1289 1971)">Symbols should be outlined when exporting to ensure the</text>
  <text style="stroke:none;fill:black;font-family:sans-serif;font-size:13;" transform="matrix(1 0 0 1 1289 1989)">design is preserved when submitting to Xcode.</text>
  <text id="template-version" style="stroke:none;fill:black;font-family:sans-serif;font-size:13;text-anchor:end;" transform="matrix(1 0 0 1 3036 1933)">Template v.4.0</text>
  <text style="stroke:none;fill:black;font-family:sans-serif;font-size:13;text-anchor:end;" transform="matrix(1 0 0 1 3036 1951)">Requires Xcode 14 or greater</text>
  <text id="descriptive-name" style="stroke:none;fill:black;font-family:sans-serif;font-size:13;text-anchor:end;" transform="matrix(1 0 0 1 3036 1969)">Generated from gear</text>
  <text style="stroke:none;fill:black;font-family:sans-serif;font-size:13;text-anchor:end;" transform="matrix(1 0 0 1 3036 1987)">Typeset at 100.0 points</text>
  <text style="stroke:none;fill:black;font-family:sans-serif;font-size:13;" transform="matrix(1 0 0 1 263 726)">Small</text>
  <text style="stroke:none;fill:black;font-family:sans-serif;font-size:13;" transform="matrix(1 0 0 1 263 1156)">Medium</text>
  <text style="stroke:none;fill:black;font-family:sans-serif;font-size:13;" transform="matrix(1 0 0 1 263 1586)">Large</text>
 </g>
 <g id="Guides">
  <g id="H-reference" style="fill:#27AAE1;stroke:none;" transform="matrix(1 0 0 1 339 696)">
   <path d="M0.993654 0L3.63775 0L29.3281-67.1323L30.0303-67.1323L30.0303-70.459L28.1226-70.459ZM11.6885-24.4799L46.9815-24.4799L46.2315-26.7285L12.4385-26.7285ZM55.1196 0L57.7637 0L30.6382-70.459L29.4326-70.459L29.4326-67.1323Z"/>
  </g>
  <line id="Baseline-S" style="fill:none;stroke:#27AAE1;opacity:1;stroke-width:0.5;" x1="263" x2="3036" y1="696" y2="696"/>
  <line id="Capline-S" style="fill:none;stroke:#27AAE1;opacity:1;stroke-width:0.5;" x1="263" x2="3036" y1="625.541" y2="625.541"/>
  <g id="H-reference" style="fill:#27AAE1;stroke:none;" transform="matrix(1 0 0 1 339 1126)">
   <path d="M0.993654 0L3.63775 0L29.3281-67.1323L30.0303-67.1323L30.0303-70.459L28.1226-70.459ZM11.6885-24.4799L46.9815-24.4799L46.2315-26.7285L12.4385-26.7285ZM55.1196 0L57.7637 0L30.6382-70.459L29.4326-70.459L29.4326-67.1323Z"/>
  </g>
  <line id="Baseline-M" style="fill:none;stroke:#27AAE1;opacity:1;stroke-width:0.5;" x1="263" x2="3036" y1="1126" y2="1126"/>
  <line id="Capline-M" style="fill:none;stroke:#27AAE1;opacity:1;stroke-width:0.5;" x1="263" x2="3036" y1="1055.54" y2="1055.54"/>
  <g id="H-reference" style="fill:#27AAE1;stroke:none;" transform="matrix(1 0 0 1 339 1556)">
   <path d="M0.993654 0L3.63775 0L29.3281-67.1323L30.0303-67.1323L30.0303-70.459L28.1226-70.459ZM11.6885-24.4799L46.9815-24.4799L46.2315-26.7285L12.4385-26.7285ZM55.1196 0L57.7637 0L30.6382-70.459L29.4326-70.459L29.4326-67.1323Z"/>
  </g>
  <line id="Baseline-L" style="fill:none;stroke:#27AAE1;opacity:1;stroke-width:0.5;" x1="263" x2="3036" y1="1556" y2="1556"/>
  <line id="Capline-L" style="fill:none;stroke:#27AAE1;opacity:1;stroke-width:0.5;" x1="263" x2="3036" y1="1485.54" y2="1485.54"/>
  <line id="left-margin-Ultralight-S" style="fill:none;stroke:#00AEEF;stroke-width:0.5;opacity:1.0;" x1="514.568" x2="514.568" y1="600.785" y2="720.121"/>
  <line id="right-margin-Ultralight-S" style="fill:none;stroke:#00AEEF;stroke-width:0.5;opacity:1.0;" x1="604.854" x2="604.854" y1="600.785" y2="720.121"/>
  <line id="left-margin-Regular-S" style="fill:none;stroke:#00AEEF;stroke-width:0.5;opacity:1.0;" x1="1399.82" x2="1399.82" y1="600.785" y2="720.121"/>
  <line id="right-margin-Regular-S" style="fill:none;stroke:#00AEEF;stroke-width:0.5;opacity:1.0;" x1="1499.87" x2="1499.87" y1="600.785" y2="720.121"/>
  <line id="left-margin-Black-S" style="fill:none;stroke:#00AEEF;stroke-width:0.5;opacity:1.0;" x1="2879.86" x2="2879.86" y1="600.785" y2="720.121"/>
  <line id="right-margin-Black-S" style="fill:none;stroke:#00AEEF;stroke-width:0.5;opacity:1.0;" x1="2986.94" x2="2986.94" y1="600.785" y2="720.121"/>
 </g>
 <g id="Symbols">
  <g id="Black-S" transform="matrix(1 0 0 1 2879.86 696)">
   <path class="monochrome-0 multicolor-0:systemGrayColor hierarchical-0:primary SFSymbolsPreview8E8E93" d="M53.5645 5.12695C54.1992 5.12695 54.834 5.07812 55.5176 5.0293L57.373 8.54492C58.0566 10.1562 59.8145 11.0352 61.6699 10.7422C63.3789 10.4492 64.6973 9.0332 64.9414 7.27539L65.4785 3.27148C66.748 2.92969 67.9688 2.44141 69.1406 2.00195L72.1191 4.63867C73.4375 5.81055 75.293 6.10352 76.9531 5.17578C78.4668 4.24805 79.1992 2.53906 78.8086 0.830078L77.9297-3.125C78.9551-3.90625 79.9805-4.73633 81.0059-5.66406L84.7168-4.05273C86.3281-3.36914 88.1348-3.85742 89.3555-5.27344C90.3809-6.54297 90.625-8.39844 89.6484-9.96094L87.5-13.4277C88.1836-14.502 88.8184-15.625 89.4043-16.7969L93.457-16.6016C95.2148-16.5039 96.875-17.5781 97.4121-19.2871C97.998-20.8984 97.4121-22.8027 96.0938-23.8281L92.8711-26.3184C93.1641-27.5879 93.457-28.9062 93.6035-30.1758L97.4121-31.4453C99.1699-32.0312 100.244-33.4961 100.244-35.2539C100.244-37.0117 99.1699-38.4766 97.4121-39.0625L93.6035-40.332C93.457-41.6016 93.1641-42.8711 92.8711-44.1895L96.0449-46.6797C97.4121-47.7539 97.998-49.5605 97.4121-51.123C96.875-52.8809 95.2148-53.9062 93.457-53.8574L89.4043-53.7109C88.8184-54.8828 88.1836-56.0059 87.5-57.1289L89.6484-60.5469C90.5762-62.0117 90.3809-63.916 89.3555-65.1855C88.1348-66.6016 86.377-67.0898 84.668-66.4062L80.9082-64.8926C79.9805-65.7227 78.9551-66.5527 77.9297-67.3828L78.8086-71.3379C79.1992-73.0957 78.418-74.8047 76.8555-75.6836C75.2441-76.5625 73.3887-76.3184 72.1191-75.1465L69.1406-72.4609C67.9688-72.9492 66.6992-73.3887 65.4785-73.7793L64.9414-77.7344C64.6973-79.4922 63.3789-80.9082 61.5723-81.25C59.8145-81.4941 58.1543-80.5664 57.4219-79.1504L55.5176-75.5371C54.834-75.5859 54.1992-75.5859 53.5645-75.5859C52.8809-75.5859 52.2461-75.5859 51.5625-75.5371L49.707-79.1016C48.9258-80.6152 47.2656-81.4941 45.4102-81.2012C43.7012-80.9082 42.3828-79.4922 42.1387-77.7344L41.6016-73.7793C40.3809-73.3887 39.1113-72.9492 37.9395-72.4609L35.0098-75.0977C33.6914-76.3184 31.8359-76.5625 30.1758-75.6836C28.6621-74.8047 27.8809-73.0957 28.2715-71.2891L29.1504-67.3828C28.125-66.5527 27.0996-65.7227 26.123-64.8926L22.3633-66.4062C20.7031-67.0898 18.9453-66.6016 17.7246-65.1855C16.6992-63.916 16.5039-62.0117 17.4316-60.5469L19.5801-57.1289C18.8965-56.0059 18.2617-54.8828 17.6758-53.7109L13.623-53.8574C11.8652-53.9062 10.2051-52.8809 9.66797-51.1719C9.08203-49.5605 9.66797-47.7051 10.9863-46.6797L14.209-44.1406C13.916-42.8711 13.623-41.6016 13.4766-40.332L9.66797-39.0625C7.91016-38.4766 6.83594-37.0117 6.83594-35.2539C6.83594-33.4961 7.91016-32.0312 9.66797-31.4453L13.4766-30.1758C13.623-28.9062 13.916-27.5879 14.209-26.3184L11.0352-23.8281C9.66797-22.7539 9.08203-20.8984 9.66797-19.3359C10.2051-17.5781 11.8652-16.5039 13.6719-16.6016L17.6758-16.7969C18.2617-15.625 18.8965-14.502 19.5801-13.4277L17.3828-9.91211C16.4551-8.44727 16.6992-6.54297 17.7246-5.27344C18.9453-3.85742 20.7031-3.36914 22.4121-4.10156L26.0742-5.66406C27.0996-4.73633 28.125-3.90625 29.1504-3.125L28.2715 0.878906C27.9297 2.53906 28.6133 4.24805 30.2246 5.22461C31.7871 6.10352 33.6914 5.85938 34.9609 4.6875L37.9395 2.00195C39.1113 2.44141 40.332 2.92969 41.6016 3.27148L42.1387 7.27539C42.3828 9.0332 43.7012 10.4492 45.5078 10.791C47.2656 11.0352 48.9258 10.1074 49.707 8.59375L51.5625 5.0293C52.2461 5.07812 52.8809 5.12695 53.5645 5.12695ZM53.5645-7.42188C38.1836-7.42188 25.7324-19.873 25.7324-35.2539C25.7324-50.6348 38.1836-63.0859 53.5645-63.0859C68.9453-63.0859 81.3965-50.6348 81.3965-35.2539C81.3965-19.873 68.9453-7.42188 53.5645-7.42188ZM53.5645-21.3867C61.2305-21.3867 67.4316-27.5879 67.4316-35.2539C67.4316-42.9199 61.2305-49.1211 53.5645-49.1211C45.8984-49.1211 39.6973-42.9199 39.6973-35.2539C39.6973-27.5879 45.8984-21.3867 53.5645-21.3867ZM65.2832-29.8828L86.8164-29.8828L86.8164-40.8691L65.332-40.8691ZM51.9531-22.2656L43.0176-28.125L31.2988-8.64258L40.8691-3.95508ZM43.0176-42.7734L52.1484-48.3398L41.5039-66.7969L31.7871-62.3047ZM53.5645-30.6641C50.9766-30.6641 48.9746-32.666 48.9746-35.2539C48.9746-37.8418 50.9766-39.8438 53.5645-39.8438C56.1523-39.8438 58.1543-37.8418 58.1543-35.2539C58.1543-32.666 56.1523-30.6641 53.5645-30.6641Z"/>
  </g>
  <g id="Regular-S" transform="matrix(1 0 0 1 1399.82 696)">
   <path class="monochrome-0 multicolor-0:systemGrayColor hierarchical-0:primary SFSymbolsPreview8E8E93" d="M50 1.9043C50.8789 1.9043 51.7578 1.85547 52.6367 1.80664L54.834 6.00586C55.3223 6.98242 56.3477 7.4707 57.4707 7.27539C58.5449 7.03125 59.375 6.20117 59.4727 5.07812L60.2051 0.488281C61.9141 0.0488281 63.5254-0.634766 65.1855-1.26953L68.6035 1.75781C69.3848 2.49023 70.6055 2.73438 71.6309 2.14844C72.5586 1.5625 73.0469 0.439453 72.7539-0.634766L71.8262-5.12695C73.1934-6.20117 74.6094-7.32422 75.8301-8.49609L80.0781-6.73828C81.25-6.25 82.3242-6.5918 83.1055-7.51953C83.7402-8.34961 83.8379-9.52148 83.3008-10.4492L80.8105-14.4043C81.7871-15.8691 82.6172-17.3828 83.4473-19.043L88.0859-18.8477C89.1602-18.7988 90.2344-19.3848 90.5762-20.5078C90.9668-21.5332 90.5273-22.6562 89.6973-23.3398L86.084-26.2207C86.5234-27.8809 86.8164-29.6387 86.9629-31.4453L91.3086-32.8613C92.4805-33.252 93.2129-34.082 93.2129-35.2539C93.2129-36.4258 92.4805-37.2559 91.3086-37.6465L86.9629-39.0625C86.8164-40.8691 86.5234-42.5781 86.084-44.2871L89.6973-47.168C90.5273-47.8516 90.9668-48.9258 90.5762-49.9512C90.2344-51.0742 89.1602-51.6602 88.0859-51.6113L83.4473-51.4648C82.6172-53.125 81.7871-54.5898 80.8105-56.1035L83.3008-60.0586C83.8379-60.9375 83.7402-62.1094 83.1055-62.9395C82.3242-63.8672 81.25-64.1602 80.127-63.7207L75.8301-62.0117C74.6094-63.1348 73.1934-64.3066 71.8262-65.332L72.7539-69.8242C72.998-70.9961 72.5586-72.0703 71.6309-72.6074C70.6055-73.1934 69.3848-73.0469 68.6035-72.2168L65.1855-69.2383C63.5254-69.873 61.9141-70.5078 60.2051-70.9961L59.4727-75.5371C59.375-76.6602 58.5449-77.4902 57.4707-77.7344C56.3477-77.9297 55.3223-77.4414 54.834-76.5137L52.6367-72.3145C51.7578-72.3633 50.8789-72.4121 50-72.4121C49.0723-72.4121 48.2422-72.3633 47.3145-72.3145L45.1172-76.5137C44.6289-77.4414 43.6035-77.9297 42.4805-77.7344C41.4062-77.4902 40.6738-76.6602 40.4785-75.5371L39.7461-70.9961C38.0859-70.5078 36.4258-69.873 34.8145-69.2383L31.3965-72.2168C30.5664-73.0469 29.3945-73.1934 28.3203-72.6074C27.3926-72.0703 27.002-70.9961 27.2461-69.8242L28.125-65.332C26.8066-64.3066 25.3418-63.1348 24.1211-62.0117L19.8242-63.7207C18.75-64.1602 17.6758-63.8672 16.8945-62.9395C16.2598-62.1094 16.1133-60.9375 16.6992-60.0586L19.1406-56.1035C18.2129-54.5898 17.3828-53.125 16.5039-51.4648L11.8652-51.6113C10.8398-51.6602 9.76562-51.0742 9.42383-49.9512C9.08203-48.9258 9.42383-47.8516 10.2539-47.168L13.8672-44.2871C13.4277-42.5781 13.1348-40.8691 13.0371-39.0625L8.59375-37.6465C7.4707-37.3047 6.83594-36.4258 6.83594-35.2539C6.83594-34.082 7.4707-33.2031 8.59375-32.8613L13.0371-31.4453C13.1348-29.6387 13.4277-27.8809 13.8672-26.2207L10.2539-23.3398C9.42383-22.6562 9.08203-21.5332 9.42383-20.5078C9.76562-19.3848 10.8398-18.7988 11.8652-18.8477L16.5039-19.043C17.3828-17.3828 18.2129-15.8691 19.1406-14.4043L16.6992-10.4492C16.1133-9.52148 16.2598-8.34961 16.8945-7.51953C17.6758-6.5918 18.75-6.25 19.873-6.73828L24.1211-8.49609C25.3418-7.32422 26.8066-6.20117 28.125-5.12695L27.2461-0.634766C27.0508 0.439453 27.3926 1.5625 28.3203 2.14844C29.3945 2.73438 30.5664 2.49023 31.3965 1.75781L34.8145-1.26953C36.4258-0.634766 38.0859 0.0488281 39.7461 0.488281L40.4785 5.07812C40.6738 6.20117 41.4062 7.03125 42.4805 7.27539C43.6035 7.4707 44.6289 6.98242 45.1172 6.00586L47.3145 1.80664C48.2422 1.85547 49.0723 1.9043 50 1.9043ZM50-5.12695C33.1543-5.12695 20.2637-18.5059 20.2637-35.2051C20.2637-51.9531 33.1543-65.3809 50-65.3809C66.8457-65.3809 79.7852-51.9531 79.7852-35.2051C79.7852-18.5059 66.8457-5.12695 50-5.12695ZM49.8535-24.6582C55.7129-24.6582 60.4004-29.3457 60.4004-35.1562C60.4004-40.9668 55.7129-45.7031 49.8535-45.7031C44.043-45.7031 39.4043-40.9668 39.4043-35.1562C39.4043-29.3457 44.043-24.6582 49.8535-24.6582ZM58.8867-32.2754L84.082-32.2754L84.082-38.2324L58.8867-38.2324ZM47.9004-25.8789L42.8711-29.248L29.4922-7.42188L34.7656-4.3457ZM42.8223-41.2109L47.9492-44.4336L35.3027-66.1133L29.9316-63.1348ZM49.8535-31.1523C47.6074-31.1523 45.8984-32.8613 45.8984-35.1562C45.8984-37.4512 47.6074-39.209 49.8535-39.209C52.1484-39.209 53.9062-37.4512 53.9062-35.1562C53.9062-32.8613 52.1484-31.1523 49.8535-31.1523Z"/>
  </g>
  <g id="Ultralight-S" transform="matrix(1 0 0 1 514.568 696)">
   <path class="monochrome-0 multicolor-0:systemGrayColor hierarchical-0:primary SFSymbolsPreview8E8E93" d="M45.1412-1.3198C46.2017-1.3198 47.3985-1.32322 48.459-1.46286L50.1568 1.73734C50.5088 2.39603 50.8531 2.65726 51.7945 2.50736C52.7325 2.39945 52.9268 2.06888 53.0699 1.17288L53.6207-2.32713C55.7383-2.8574 57.8492-3.63181 59.8272-4.62986L62.4732-2.28366C63.0274-1.77829 63.5215-1.62497 64.3653-2.07467C65.0206-2.38815 65.2364-2.83005 65.0342-3.72263L64.3336-7.2158C66.2003-8.42625 67.8887-9.86717 69.4273-11.4931L72.6309-10.1894C73.3487-9.88278 73.8326-9.90671 74.5684-10.6074C75.2032-11.2558 75.0738-11.7466 74.6275-12.4472L72.773-15.5395C74.0674-17.2768 75.2154-19.2446 76.0909-21.1772L79.6851-21.0727C80.5323-20.9785 80.9708-21.2466 81.1309-22.0972C81.4307-22.8955 81.3092-23.292 80.6607-23.8394L77.8648-26.0845C78.4405-28.1987 78.7789-30.3652 78.9708-32.6714L82.3629-33.7241C83.2169-33.9785 83.4498-34.4453 83.4498-35.2539C83.4498-36.0625 83.2169-36.5293 82.3629-36.7837L78.9708-37.8364C78.7789-40.0972 78.3951-42.3057 77.8648-44.4233L80.6607-46.6685C81.2183-47.125 81.3853-47.5181 81.1309-48.3618C80.9708-49.2124 80.5323-49.4805 79.6851-49.3862L76.0909-49.2852C75.17-51.3086 74.0674-53.1821 72.773-54.9683L74.6275-58.0606C75.0284-58.7124 75.1578-59.2031 74.5684-59.8516C73.8326-60.5977 73.3487-60.6182 72.6343-60.2696L69.4273-59.0147C67.8887-60.5918 66.2003-62.0362 64.3336-63.2432L65.0342-66.7364C65.233-67.6358 65.0206-68.0743 64.3653-68.3843C63.5215-68.834 63.0728-68.7329 62.4732-68.2207L59.8272-65.878C57.8492-66.8306 55.7383-67.6016 53.6207-68.1353L53.0699-71.6319C52.9268-72.5279 52.6871-72.8584 51.7491-72.9663C50.8531-73.1162 50.4634-72.855 50.1568-72.2452L48.459-68.9995C47.3985-69.1392 46.2017-69.188 45.1412-69.188C44.0772-69.188 42.9292-69.1392 41.8199-68.9995L40.1675-72.2452C39.8609-72.855 39.4258-73.1162 38.4844-72.9663C37.5464-72.8584 37.3589-72.5279 37.209-71.6319L36.7036-68.1807C34.544-67.6016 32.4297-66.876 30.4097-65.878L27.8091-68.1753C27.1607-68.7329 26.7608-68.834 25.959-68.3843C25.2583-68.0743 25.0493-67.6358 25.2481-66.7364L25.9453-63.2432C24.1275-62.0362 22.4356-60.5918 20.8062-59.0147L17.6445-60.2696C16.9336-60.6182 16.4497-60.5977 15.7139-59.8516C15.1245-59.2031 15.2051-58.7124 15.6094-58.106L17.5059-54.9683C16.2603-53.1821 15.1123-51.3086 14.188-49.2852L10.5938-49.3862C9.75001-49.4805 9.40235-49.2124 9.15137-48.3618C8.80957-47.5181 9.01514-47.1704 9.66358-46.6685L12.4141-44.4233C11.8838-42.3057 11.5-40.0972 11.3115-37.8364L7.95801-36.7837C7.06201-36.4873 6.83594-36.1079 6.83594-35.2539C6.83594-34.3999 7.06201-34.0205 7.95801-33.7241L11.3115-32.626C11.5-30.3652 11.8384-28.1987 12.4141-26.0845L9.66358-23.8394C9.06055-23.3828 8.80957-22.9863 9.15137-22.0972C9.35694-21.2466 9.75001-20.9785 10.5938-21.0727L14.188-21.1772C15.0669-19.2446 16.2603-17.2768 17.4605-15.5395L15.7002-12.4472C15.2959-11.7466 15.0791-11.2558 15.7139-10.6074C16.4497-9.90671 16.9336-9.88278 17.648-10.1894L20.8062-11.4931C22.4356-9.86717 24.1275-8.42625 25.9453-7.2158L25.2481-3.72263C25.0528-2.83005 25.2583-2.38815 25.959-2.07467C26.8062-1.62497 27.2061-1.77829 27.8091-2.28366L30.4097-4.62986C32.4297-3.63181 34.544-2.8574 36.7036-2.28172L37.209 1.17288C37.3589 2.06888 37.5464 2.39945 38.5298 2.50736C39.4258 2.65726 39.8155 2.39603 40.1675 1.73734L41.8199-1.46286C42.8384-1.32322 44.0772-1.3198 45.1412-1.3198ZM45.1412-3.4922C27.5235-3.4922 13.8609-17.5068 13.8609-35.2505C13.8609-53.043 27.5235-67.0156 45.1412-67.0156C62.7134-67.0156 76.4702-53.043 76.4702-35.2505C76.4702-17.5068 62.7134-3.4922 45.1412-3.4922ZM45.2217-27.519C49.4917-27.519 52.9532-30.9805 52.9532-35.2471C52.9532-39.5137 49.4917-43.0239 45.2217-43.0239C40.9551-43.0239 37.4517-39.5137 37.4517-35.2471C37.4517-30.9805 40.9551-27.519 45.2217-27.519ZM52.1207-34.4097L78.542-34.4097L78.542-36.5977L52.1207-36.5977ZM43.087-28.7397L41.1455-29.793L27.4487-6.92237L29.3619-5.84423ZM40.6426-40.8022L42.5-41.8906L29.2632-64.751L27.3887-63.7251ZM45.2217-29.7446C42.0674-29.7446 39.6773-32.1348 39.6773-35.2471C39.6773-38.3594 42.0674-40.7983 45.2217-40.7983C48.334-40.7983 50.7276-38.3594 50.7276-35.2471C50.7276-32.1348 48.334-29.7446 45.2217-29.7446Z"/>
  </g>
 </g>
</svg>
